# xmcd
#
# Track frame offsets: 
#        150
#        12075
#        24800
#        40079
#        51475
#        62134
#        80455
#        94781
#        112118
#        125352
#        139688
#        150089
#        161511
#        175620
#        193259
#        206287
#        221500
#        235691
#        247914
#        264828
#        279180
#        294769
#        309985
#        324137
#        338537
#
# Disc length: 4673 seconds
#
# Revision: 2
# Processed by: cddbd v1.5.2PL0 Copyright (c) Steve Scherf et al.
# Submitted via: ExactAudioCopy v1.0b1
#
DISCID=38123f19
DTITLE=Various Artist - The Stax Solo Recordings
DYEAR=2008
DGENRE=Soul
TTITLE0=Veda Brown - Take It Off Her (And Put It On Me)
TTITLE1=Veda Brown - Living A Life Without Love
TTITLE2=Veda Brown - I Know It's Not Right (To Be In Love With A Marri
TTITLE2=ed Man)
TTITLE3=Veda Brown - Don't Let The Green Grass Fool You
TTITLE4=Veda Brown - Short Stopping
TTITLE5=Veda Brown - I Can See Every Woman's Man But Mine
TTITLE6=Veda Brown - Fever
TTITLE7=Veda Brown - Don't Start Loving Me (If You're Gonna Stop)
TTITLE8=Veda Brown - Help Me Make It Through The Night
TTITLE9=Veda Brown - (If Loving You Is Wrong) I Don't Want To Be Right
TTITLE10=Veda Brown - Guilty Of Loving You
TTITLE11=Veda Brown - True Love Don't Grow On Trees
TTITLE12=Veda Brown - That's The Way Love Is
TTITLE13=Veda Brown - Who Wouldn't Love A Man Like This
TTITLE14=Veda Brown - I'll Be Your Shelter (In Time Of Storm)
TTITLE15=Veda Brown - Take My Hand, Precious Lord
TTITLE16=Judy Clay - Remove These Clouds
TTITLE17=Judy Clay - Bed Of Roses
TTITLE18=Judy Clay - It's Me
TTITLE19=Judy Clay - Since You Came Along
TTITLE20=Judy Clay - Somebody's Fool
TTITLE21=Judy Clay - It Ain't Long Enough
TTITLE22=Judy Clay - Give Love To Save Love
TTITLE23=Judy Clay - Your Love Is Good Enough
TTITLE24=Judy Clay - My Baby Specializes
EXTD=
EXTT0=
EXTT1=
EXTT2=
EXTT3=
EXTT4=
EXTT5=
EXTT6=
EXTT7=
EXTT8=
EXTT9=
EXTT10=
EXTT11=
EXTT12=
EXTT13=
EXTT14=
EXTT15=
EXTT16=
EXTT17=
EXTT18=
EXTT19=
EXTT20=
EXTT21=
EXTT22=
EXTT23=
EXTT24=
PLAYORDER=
